<?xml version="1.0" encoding="UTF-8"?>
<svg version="1.1" xmlns="http://www.w3.org/2000/svg" width="128" height="128">
<path d="M0 0 C1.15371094 -0.02578125 2.30742188 -0.0515625 3.49609375 -0.078125 C6.5625 0.25 6.5625 0.25 8.4609375 1.59765625 C9.97228466 3.86467699 9.77837036 5.5875989 9.5625 8.25 C10.325625 8.37375 11.08875 8.4975 11.875 8.625 C14.5625 9.25 14.5625 9.25 17.5625 11.25 C21.20189932 10.93269476 21.20189932 10.93269476 24.5625 10.25 C30.3580406 18.97780816 30.3580406 18.97780816 31.125 23.75 C30.5625 26.25 30.5625 26.25 27.5625 28.25 C27.08562697 30.38253645 27.08562697 30.38253645 27.1875 32.75 C27.17976563 33.5440625 27.17203125 34.338125 27.1640625 35.15625 C27.29554687 35.8471875 27.42703125 36.538125 27.5625 37.25 C29.0475 38.24 29.0475 38.24 30.5625 39.25 C31.76661945 44.601642 29.26165259 48.805812 26.4921875 53.23828125 C24.5625 55.25 24.5625 55.25 22.1953125 55.85546875 C19.93430664 55.81573862 17.798859 55.55602807 15.5625 55.25 C13.68005937 57.13244063 14.39048012 59.87066025 14.32348633 62.38305664 C13.81532094 80.04729061 9.31669643 93.81189492 -2.953125 106.92578125 C-14.00586013 117.26599729 -27.96304265 122.13538278 -42.95703125 122.28515625 C-58.71543591 121.57281381 -73.4422942 115.52101964 -84.3359375 103.89453125 C-96.08277019 89.11273621 -99.00265755 73.78087475 -97.4375 55.25 C-95.87513772 46.06182182 -91.89771005 38.71428714 -86.4375 31.25 C-85.72787109 30.26386719 -85.72787109 30.26386719 -85.00390625 29.2578125 C-77.52169023 19.71957678 -65.00721494 12.79579979 -53.15234375 10.5234375 C-45.22001356 9.72449777 -37.0086756 9.72536696 -29.10546875 10.78515625 C-25.49115328 11.24320049 -22.96859864 11.01763014 -19.4375 10.25 C-18.40625 10.085 -17.375 9.92 -16.3125 9.75 C-13.97921473 9.34421126 -11.72236523 8.86515602 -9.4375 8.25 C-9.251875 6.5484375 -9.251875 6.5484375 -9.0625 4.8125 C-8.85625 3.636875 -8.65 2.46125 -8.4375 1.25 C-5.60720852 -0.16514574 -3.15370867 0.04219008 0 0 Z " fill="#080705" transform="translate(97.4375,2.75)"/>
<path d="M0 0 C0 2.64 0 5.28 0 8 C0.99 8 1.98 8 3 8 C3 5.36 3 2.72 3 0 C4.77155654 0.11429397 6.54226229 0.24183037 8.3125 0.375 C9.79169922 0.47941406 9.79169922 0.47941406 11.30078125 0.5859375 C14 1 14 1 17 3 C17.3984375 5.05859375 17.3984375 5.05859375 17.375 7.4375 C17.38660156 8.61119141 17.38660156 8.61119141 17.3984375 9.80859375 C16.91604222 12.46176779 15.96330397 13.23458874 14 15 C14.10512821 17.94358984 15.61565085 20.13435254 17.0625 22.625 C19 26 19 26 19 28 C19.56847656 27.88140625 20.13695312 27.7628125 20.72265625 27.640625 C24.90031632 26.94318592 28.08636744 26.58818521 31.9375 28.5625 C35.31820647 31.25326637 36.14667387 32.82818338 37 37 C38.65 37.33 40.3 37.66 42 38 C42 38.99 42 39.98 42 41 C39.03 41 36.06 41 33 41 C33 41.99 33 42.98 33 44 C35.64 44 38.28 44 41 44 C40.71315435 51.45798682 38.09607622 57.76475517 34 64 C31.80078125 65.3515625 31.80078125 65.3515625 30 66 C29.5875 65.525625 29.175 65.05125 28.75 64.5625 C26.817815 62.83733482 25.51807725 62.43415125 23 62 C24.65 63.98 26.3 65.96 28 68 C25.91164758 72.89360195 22.68423577 74.73708417 18 77 C12.95962354 78.75196533 8.35143829 80 3 80 C2.8046875 77.94921875 2.609375 75.8984375 2.4140625 73.84765625 C2.20910156 72.93306641 2.20910156 72.93306641 2 72 C1.01 71.505 1.01 71.505 0 71 C0 73.97 0 76.94 0 80 C-9.8187683 79.36653108 -17.77689704 76.84293965 -25 70 C-23.62845496 67.04590299 -22.01136276 64.55991624 -20 62 C-23.08510827 63.19976433 -26.05047042 64.50002556 -29 66 C-35.16939318 59.00802106 -39.45257946 50.52157549 -39 41 C-36.03 41 -33.06 41 -30 41 C-30.33 40.34 -30.66 39.68 -31 39 C-32.89533342 38.53476937 -32.89533342 38.53476937 -35.0625 38.375 C-37.0115625 38.189375 -37.0115625 38.189375 -39 38 C-38.89347593 31.82160402 -37.40987807 27.08697022 -34.6875 21.5625 C-34.39157959 20.94745605 -34.09565918 20.33241211 -33.79077148 19.69873047 C-32.03572089 16.28721165 -30.71270043 14.23756681 -27 13 C-26.38125 13.66 -25.7625 14.32 -25.125 15 C-23.24362573 17.2284549 -23.24362573 17.2284549 -21 17 C-22.3089572 13.87802522 -22.3089572 13.87802522 -25 12 C-24.79296875 10.1953125 -24.79296875 10.1953125 -24 8 C-16.60490496 2.17862575 -9.28149155 -0.32005143 0 0 Z " fill="#D6EEEE" transform="translate(54,29)"/>
<path d="M0 0 C0.77666016 -0.00773437 1.55332031 -0.01546875 2.35351562 -0.0234375 C6.93800146 -0.00791003 10.6237922 0.51071301 14.9375 2.25 C14.4734375 3.3946875 14.4734375 3.3946875 14 4.5625 C13.25856407 6.43789677 12.57521783 8.33684652 11.9375 10.25 C11.009375 10.085 10.08125 9.92 9.125 9.75 C-4.67498705 7.89337524 -16.81266214 10.81262161 -28.0625 19.25 C-35.86885672 26.32451078 -41.48406404 36.58572353 -42.28125 47.1484375 C-42.67446556 60.94375014 -39.25235863 72.49447883 -30.0625 82.9375 C-20.68127721 91.8127692 -8.72724385 94.75506605 3.75390625 94.52734375 C15.07134041 94.01046025 25.02280052 88.67567945 32.6875 80.5 C40.16358197 71.2933435 42.19293359 61.68187417 43.9375 50.25 C45.9175 50.25 47.8975 50.25 49.9375 50.25 C50.2675 48.6 50.5975 46.95 50.9375 45.25 C51.2675 45.25 51.5975 45.25 51.9375 45.25 C52.79785611 61.04231443 50.33875089 73.7053243 39.9375 86.25 C39.41542969 86.88421875 38.89335938 87.5184375 38.35546875 88.171875 C29.17364446 98.2696477 16.07325344 103.16093248 2.73828125 104.59375 C-11.44711897 105.03878216 -23.73232524 100.10183313 -34.375 90.875 C-44.65037012 81.10364329 -51.02043507 69.49494105 -51.40625 55.14208984 C-51.59399608 38.51776134 -47.63109053 26.81488629 -36.26171875 14.26171875 C-26.63574159 4.96553952 -13.22717111 -0.13238203 0 0 Z " fill="#EDA363" transform="translate(55.0625,16.75)"/>
<path d="M0 0 C3.63 0 7.26 0 11 0 C11 0.9075 11 1.815 11 2.75 C11.64523176 6.01087097 11.64523176 6.01087097 13.7421875 7.25390625 C18.75217735 9.74054956 22.42079809 11.35710317 28 10 C32.03387334 16.35640648 32.03387334 16.35640648 31.875 19.375 C31 21 31 21 29 22 C28.91921359 24.12438339 28.86090859 26.2496323 28.8125 28.375 C28.77769531 29.55835937 28.74289063 30.74171875 28.70703125 31.9609375 C28.80371094 32.96382812 28.90039062 33.96671875 29 35 C29.99 35.66 30.98 36.32 32 37 C31.43454163 40.95820859 30.19097652 43.6659053 28 47 C26.96875 46.7525 25.9375 46.505 24.875 46.25 C20.12625126 45.94362911 18.68440228 47.15296187 15 50 C14.01 50.33 13.02 50.66 12 51 C11.67 52.98 11.34 54.96 11 57 C7.37 57 3.74 57 0 57 C0 56.0925 0 55.185 0 54.25 C-0.64523176 50.98912903 -0.64523176 50.98912903 -2.7421875 49.74609375 C-7.75217735 47.25945044 -11.42079809 45.64289683 -17 47 C-21 40.375 -21 40.375 -21 37 C-20.01 36.34 -19.02 35.68 -18 35 C-17.51996082 31.94714247 -17.51996082 31.94714247 -17.625 28.5 C-17.61726563 27.3346875 -17.60953125 26.169375 -17.6015625 24.96875 C-17.79878906 23.49921875 -17.79878906 23.49921875 -18 22 C-18.99 21.34 -19.98 20.68 -21 20 C-20.43454163 16.04179141 -19.19097652 13.3340947 -17 10 C-15.96875 10.2475 -14.9375 10.495 -13.875 10.75 C-9.12625126 11.05637089 -7.68440228 9.84703813 -4 7 C-3.01 6.67 -2.02 6.34 -1 6 C-0.67 4.02 -0.34 2.04 0 0 Z " fill="#95A0A8" transform="translate(92,7)"/>
<path d="M0 0 C3.52377819 2.22151234 5.45733709 4.15736694 7 8 C7.23974502 12.46724889 6.53895094 16.09533235 4.25 19.9375 C0.9767995 22.93793379 -1.56882422 23.81729671 -5.9375 24.375 C-9.95422287 23.88315638 -11.91865639 22.6020235 -15 20 C-17.39367064 16.602532 -18.25431351 14.02963561 -18 9.9375 C-17.12419282 4.90401481 -14.12623606 2.61300667 -10.1875 -0.375 C-6.69012444 -1.37425016 -3.44607162 -0.95229415 0 0 Z " fill="#EAEAEA" transform="translate(103,24)"/>
<path d="M0 0 C4.33596859 1.90003118 7.14377104 4.05360833 9.2109375 8.36328125 C10.81614968 13.4698625 10.65726799 18.34480346 8.2734375 23.1640625 C5.84572035 26.81412674 2.99668716 28.97280428 -1.1640625 30.3515625 C-5.90509517 31.15274746 -9.16937719 30.85828898 -13.4765625 28.6640625 C-18.42839531 24.4031831 -20.93543226 21.14085138 -21.4765625 14.5390625 C-21.41210584 10.14795256 -20.01344136 7.74001304 -17.1640625 4.3515625 C-11.75696384 -0.41183394 -7.09450136 -2.12578922 0 0 Z M-17.1640625 9.1015625 C-18.42481606 13.19901156 -18.41342983 16.25735201 -17.1640625 20.3515625 C-14.94255016 23.87534069 -13.00669556 25.80889959 -9.1640625 27.3515625 C-4.69681361 27.59130752 -1.06873015 26.89051344 2.7734375 24.6015625 C5.77387129 21.328362 6.65323421 18.78273828 7.2109375 14.4140625 C6.71909388 10.39733963 5.437961 8.43290611 2.8359375 5.3515625 C-4.79113436 0.48321876 -11.80099701 1.72734745 -17.1640625 9.1015625 Z " fill="#060607" transform="translate(103.1640625,20.6484375)"/>
<path d="M0 0 C3.99529508 0.53451794 5.72566892 2.44087299 8.4375 5.3125 C15.05551014 12.46798875 15.05551014 12.46798875 24.12695312 14.70703125 C24.84818359 14.72121094 25.56941406 14.73539063 26.3125 14.75 C27.42334961 14.79447266 27.42334961 14.79447266 28.55664062 14.83984375 C30.37052046 14.91005845 32.18526278 14.95735048 34 15 C33.67 15.99 33.34 16.98 33 18 C19.16786147 19.93815594 19.16786147 19.93815594 13.96728516 16.75634766 C9.81690001 13.27673182 6.46192195 9.14365427 3 5 C2.01 4.34 1.02 3.68 0 3 C0 2.01 0 1.02 0 0 Z " fill="#070808" transform="translate(38,53)"/>
</svg>
