<?xml version="1.0" encoding="UTF-8"?>
<svg version="1.1" xmlns="http://www.w3.org/2000/svg" width="128" height="128">
<path d="M0 0 C2.5625 0.375 2.5625 0.375 4.375 1.8125 C6.83376741 7.11826126 5.71193506 12.81958918 4.5625 18.375 C5.54645752 18.39481934 6.53041504 18.41463867 7.54418945 18.43505859 C11.19532839 18.51113987 14.84607009 18.599853 18.49682617 18.69238281 C20.07682451 18.73066221 21.65690969 18.76551697 23.23706055 18.796875 C25.50861645 18.84254876 27.77957509 18.90053784 30.05078125 18.9609375 C30.75713211 18.97248871 31.46348297 18.98403992 32.1912384 18.99594116 C35.83991393 19.10571048 37.44463546 19.29642364 40.5625 21.375 C40.875 24.375 40.875 24.375 40.5625 27.375 C38.5625 29.375 38.5625 29.375 36.22412109 29.60205078 C35.27102051 29.59157715 34.31791992 29.58110352 33.3359375 29.5703125 C31.7890625 29.56064453 31.7890625 29.56064453 30.2109375 29.55078125 C29.13070312 29.53402344 28.05046875 29.51726562 26.9375 29.5 C25.84953125 29.49097656 24.7615625 29.48195313 23.640625 29.47265625 C20.94769848 29.44903409 18.25520745 29.41609556 15.5625 29.375 C15.748125 30.48875 15.93375 31.6025 16.125 32.75 C16.5625 36.375 16.5625 36.375 15.5625 38.375 C15.748125 39.179375 15.93375 39.98375 16.125 40.8125 C16.5625 43.375 16.5625 43.375 14.5625 46.375 C14.8409375 47.6125 14.8409375 47.6125 15.125 48.875 C15.269375 49.7 15.41375 50.525 15.5625 51.375 C14.41430664 53.00854492 14.41430664 53.00854492 12.5625 54.375 C10.17749023 54.74731445 10.17749023 54.74731445 7.37109375 54.73828125 C6.34306641 54.73763672 5.31503906 54.73699219 4.25585938 54.73632812 C2.64420898 54.7121582 2.64420898 54.7121582 1 54.6875 C-0.57104492 54.69233398 -0.57104492 54.69233398 -2.17382812 54.69726562 C-8.19197047 54.65612233 -13.73510418 54.11895283 -19.58959961 52.70385742 C-20.19940674 52.59533447 -20.80921387 52.48681152 -21.4375 52.375 C-21.9325 52.87 -21.9325 52.87 -22.4375 53.375 C-23.93488124 53.4729057 -25.43692892 53.50474864 -26.9375 53.5 C-27.7521875 53.50257812 -28.566875 53.50515625 -29.40625 53.5078125 C-31.4375 53.375 -31.4375 53.375 -32.4375 52.375 C-32.53832764 49.93839554 -32.57722603 47.53075299 -32.5703125 45.09375 C-32.57126923 44.36506714 -32.57222595 43.63638428 -32.57321167 42.88562012 C-32.57389335 41.3422029 -32.57203988 39.79878283 -32.56787109 38.25537109 C-32.56252262 35.885026 -32.56781642 33.51487041 -32.57421875 31.14453125 C-32.57355797 29.64843708 -32.5722768 28.15234303 -32.5703125 26.65625 C-32.57233673 25.94271362 -32.57436096 25.22917725 -32.57644653 24.49401855 C-32.55245191 19.48995191 -32.55245191 19.48995191 -31.4375 18.375 C-27.93978907 18.38257901 -24.45378557 18.45279272 -20.95898438 18.58984375 C-16.03777989 18.68374358 -12.64881914 18.22514922 -8.4375 15.375 C-6.14795972 12.06334352 -5.72519537 8.29636262 -5 4.3984375 C-4.15031349 1.34192631 -3.11756979 0.47962612 0 0 Z " fill="#FECDBF" transform="translate(34.4375,71.625)"/>
<path d="M0 0 C1.02802734 0.00064453 2.05605469 0.00128906 3.11523438 0.00195312 C4.72688477 0.02612305 4.72688477 0.02612305 6.37109375 0.05078125 C7.41845703 0.04755859 8.46582031 0.04433594 9.54492188 0.04101562 C15.56306422 0.08215892 21.10619793 0.61932842 26.96069336 2.03442383 C27.57050049 2.14294678 28.18030762 2.25146973 28.80859375 2.36328125 C29.13859375 2.03328125 29.46859375 1.70328125 29.80859375 1.36328125 C31.30597499 1.26537555 32.80802267 1.23353261 34.30859375 1.23828125 C35.12328125 1.23570313 35.93796875 1.233125 36.77734375 1.23046875 C38.80859375 1.36328125 38.80859375 1.36328125 39.80859375 2.36328125 C39.90942139 4.79988571 39.94831978 7.20752826 39.94140625 9.64453125 C39.94236298 10.37321411 39.9433197 11.10189697 39.94430542 11.85266113 C39.9449871 13.39607835 39.94313363 14.93949842 39.93896484 16.48291016 C39.93361637 18.85325525 39.93891017 21.22341084 39.9453125 23.59375 C39.94465172 25.08984417 39.94337055 26.58593822 39.94140625 28.08203125 C39.94343048 28.79556763 39.94545471 29.509104 39.94754028 30.2442627 C39.92354566 35.24832934 39.92354566 35.24832934 38.80859375 36.36328125 C35.31088282 36.35570224 31.82487932 36.28548853 28.33007812 36.1484375 C23.40887364 36.05453767 20.01991289 36.51313203 15.80859375 39.36328125 C13.51905347 42.67493773 13.09628912 46.44191863 12.37109375 50.33984375 C11.80859375 52.36328125 11.80859375 52.36328125 9.80859375 54.36328125 C7.37109375 54.73828125 7.37109375 54.73828125 4.80859375 54.36328125 C2.99609375 52.92578125 2.99609375 52.92578125 1.80859375 50.36328125 C1.31193761 45.52314141 1.82721094 41.1064676 2.80859375 36.36328125 C1.82463623 36.34346191 0.84067871 36.32364258 -0.1730957 36.30322266 C-3.82423464 36.22714138 -7.47497634 36.13842825 -11.12573242 36.04589844 C-12.70573076 36.00761904 -14.28581594 35.97276428 -15.8659668 35.94140625 C-18.1375227 35.89573249 -20.40848134 35.83774341 -22.6796875 35.77734375 C-23.38603836 35.76579254 -24.09238922 35.75424133 -24.82014465 35.74234009 C-28.46882018 35.63257077 -30.07354171 35.44185761 -33.19140625 33.36328125 C-33.50390625 30.36328125 -33.50390625 30.36328125 -33.19140625 27.36328125 C-31.19140625 25.36328125 -31.19140625 25.36328125 -28.85302734 25.13623047 C-27.89992676 25.1467041 -26.94682617 25.15717773 -25.96484375 25.16796875 C-24.41796875 25.17763672 -24.41796875 25.17763672 -22.83984375 25.1875 C-21.21949219 25.21263672 -21.21949219 25.21263672 -19.56640625 25.23828125 C-18.4784375 25.24730469 -17.39046875 25.25632812 -16.26953125 25.265625 C-13.57660473 25.28924716 -10.8841137 25.32218569 -8.19140625 25.36328125 C-8.37703125 24.24953125 -8.56265625 23.13578125 -8.75390625 21.98828125 C-9.19140625 18.36328125 -9.19140625 18.36328125 -8.19140625 16.36328125 C-8.37703125 15.55890625 -8.56265625 14.75453125 -8.75390625 13.92578125 C-9.19140625 11.36328125 -9.19140625 11.36328125 -7.19140625 8.36328125 C-7.37703125 7.53828125 -7.56265625 6.71328125 -7.75390625 5.86328125 C-7.89828125 5.03828125 -8.04265625 4.21328125 -8.19140625 3.36328125 C-5.89186354 0.09170135 -3.85066349 -0.01239448 0 0 Z " fill="#FECDBF" transform="translate(86.19140625,1.63671875)"/>
<path d="M0 0 C0.99 0.33 1.98 0.66 3 1 C3.15082031 1.65097656 3.30164063 2.30195312 3.45703125 2.97265625 C3.72580078 3.97619141 3.72580078 3.97619141 4 5 C5.94216503 5.75711518 7.8896371 6.50487903 9.8671875 7.1640625 C14.43356175 8.95381358 17.30861025 11.83178974 19.8125 16.0625 C21 19 21 19 21.375 21.25 C21.88146541 23.3117197 21.88146541 23.3117197 24.5625 24.25 C25.366875 24.4975 26.17125 24.745 27 25 C26.505 26.485 26.505 26.485 26 28 C25.34902344 28.15082031 24.69804688 28.30164063 24.02734375 28.45703125 C23.02380859 28.72580078 23.02380859 28.72580078 22 29 C21.24288482 30.94216503 20.49512097 32.8896371 19.8359375 34.8671875 C18.04618642 39.43356175 15.16821026 42.30861025 10.9375 44.8125 C8 46 8 46 5.75 46.375 C3.6882803 46.88146541 3.6882803 46.88146541 2.75 49.5625 C2.5025 50.366875 2.255 51.17125 2 52 C0.515 51.505 0.515 51.505 -1 51 C-1.15082031 50.34902344 -1.30164063 49.69804688 -1.45703125 49.02734375 C-1.72580078 48.02380859 -1.72580078 48.02380859 -2 47 C-3.94216503 46.24288482 -5.8896371 45.49512097 -7.8671875 44.8359375 C-12.43356175 43.04618642 -15.30861025 40.16821026 -17.8125 35.9375 C-19 33 -19 33 -19.375 30.75 C-19.88146541 28.6882803 -19.88146541 28.6882803 -22.5625 27.75 C-23.366875 27.5025 -24.17125 27.255 -25 27 C-24.505 25.515 -24.505 25.515 -24 24 C-23.34902344 23.84917969 -22.69804688 23.69835937 -22.02734375 23.54296875 C-21.02380859 23.27419922 -21.02380859 23.27419922 -20 23 C-19.24288482 21.05783497 -18.49512097 19.1103629 -17.8359375 17.1328125 C-16.04618642 12.56643825 -13.16821026 9.69138975 -8.9375 7.1875 C-6 6 -6 6 -3.75 5.625 C-1.6882803 5.11853459 -1.6882803 5.11853459 -0.75 2.4375 C-0.5025 1.633125 -0.255 0.82875 0 0 Z " fill="#FE6D74" transform="translate(63,38)"/>
<path d="M0 0 C3.25 1.8125 3.25 1.8125 5 5 C5.90409384 10.04147241 6.07385504 15.22878151 3.25 19.6875 C-1.0032068 22.71382022 -4.03903703 22.80583397 -9.171875 22.49609375 C-12 22 -12 22 -15.25 20.25 C-17.95500773 15.22641422 -17.90797526 10.57096685 -17 5 C-13.43482015 -1.62104828 -6.71762136 -1.10413942 0 0 Z " fill="#F3EDF9" transform="translate(70,53)"/>
<path d="M0 0 C1.37478516 0.01740234 1.37478516 0.01740234 2.77734375 0.03515625 C3.69644531 0.04417969 4.61554687 0.05320312 5.5625 0.0625 C6.27277344 0.07410156 6.98304687 0.08570312 7.71484375 0.09765625 C7.73949565 4.92146427 7.75768068 9.74523592 7.76977539 14.5690918 C7.77481549 16.21135089 7.78164753 17.85360548 7.7902832 19.49584961 C7.80236301 21.85141104 7.80807514 24.20691334 7.8125 26.5625 C7.81766129 27.30104721 7.82282257 28.03959442 7.82814026 28.80052185 C7.82833625 30.56663713 7.77679094 32.33262771 7.71484375 34.09765625 C6.71484375 35.09765625 6.71484375 35.09765625 4.68359375 35.23046875 C3.86890625 35.22789063 3.05421875 35.2253125 2.21484375 35.22265625 C1.40015625 35.22523437 0.58546875 35.2278125 -0.25390625 35.23046875 C-2.28515625 35.09765625 -2.28515625 35.09765625 -3.28515625 34.09765625 C-3.38598389 31.66105179 -3.42488228 29.25340924 -3.41796875 26.81640625 C-3.41892548 26.08772339 -3.4198822 25.35904053 -3.42086792 24.60827637 C-3.4215496 23.06485915 -3.41969613 21.52143908 -3.41552734 19.97802734 C-3.41017887 17.60768225 -3.41547267 15.23752666 -3.421875 12.8671875 C-3.42121422 11.37109333 -3.41993305 9.87499928 -3.41796875 8.37890625 C-3.41999298 7.66536987 -3.42201721 6.9518335 -3.42410278 6.2166748 C-3.39498936 0.14508502 -3.39498936 0.14508502 0 0 Z " fill="#50AFFA" transform="translate(5.28515625,89.90234375)"/>
<path d="M0 0 C0.8146875 0.00257812 1.629375 0.00515625 2.46875 0.0078125 C3.2834375 0.00523438 4.098125 0.00265625 4.9375 0 C6.96875 0.1328125 6.96875 0.1328125 7.96875 1.1328125 C8.06957764 3.56941696 8.10847603 5.97705951 8.1015625 8.4140625 C8.10251923 9.14274536 8.10347595 9.87142822 8.10446167 10.62219238 C8.10514335 12.1656096 8.10328988 13.70902967 8.09912109 15.25244141 C8.09377262 17.6227865 8.09906642 19.99294209 8.10546875 22.36328125 C8.10480797 23.85937542 8.1035268 25.35546947 8.1015625 26.8515625 C8.10358673 27.56509888 8.10561096 28.27863525 8.10769653 29.01379395 C8.08370191 34.01786059 8.08370191 34.01786059 6.96875 35.1328125 C5.28266034 35.20486761 3.59374341 35.21667318 1.90625 35.1953125 C0.98714844 35.18628906 0.06804687 35.17726562 -0.87890625 35.16796875 C-1.58917969 35.15636719 -2.29945312 35.14476562 -3.03125 35.1328125 C-3.0559019 30.30900448 -3.07408693 25.48523283 -3.08618164 20.66137695 C-3.09122174 19.01911786 -3.09805378 17.37686327 -3.10668945 15.73461914 C-3.11876926 13.37905771 -3.12448139 11.02355541 -3.12890625 8.66796875 C-3.13406754 7.92942154 -3.13922882 7.19087433 -3.14454651 6.4299469 C-3.1447425 4.66383162 -3.09319719 2.89784104 -3.03125 1.1328125 C-2.03125 0.1328125 -2.03125 0.1328125 0 0 Z " fill="#4EAEFA" transform="translate(118.03125,2.8671875)"/>
<path d="M0 0 C0.99 0.33 1.98 0.66 3 1 C3.02693575 3.12493141 3.04636628 5.24995912 3.0625 7.375 C3.07410156 8.55835938 3.08570312 9.74171875 3.09765625 10.9609375 C3 14 3 14 2 16 C0.9275 15.9175 -0.145 15.835 -1.25 15.75 C-4.95414023 15.69405882 -4.95414023 15.69405882 -7.4375 17.5625 C-9.5248128 20.81870797 -9.2915423 23.20995016 -9 27 C-11.88415883 28.44207941 -14.41721528 28.09394887 -17.625 28.0625 C-18.81351563 28.05347656 -20.00203125 28.04445313 -21.2265625 28.03515625 C-22.14179687 28.02355469 -23.05703125 28.01195313 -24 28 C-24 26.68 -24 25.36 -24 24 C-23.36964844 23.91105469 -22.73929688 23.82210937 -22.08984375 23.73046875 C-21.40019531 23.48941406 -20.71054687 23.24835937 -20 23 C-19.24288482 21.05783497 -18.49512097 19.1103629 -17.8359375 17.1328125 C-16.04618642 12.56643825 -13.16821026 9.69138975 -8.9375 7.1875 C-6 6 -6 6 -3.75 5.625 C-1.6882803 5.11853459 -1.6882803 5.11853459 -0.75 2.4375 C-0.5025 1.633125 -0.255 0.82875 0 0 Z " fill="#FE6D74" transform="translate(63,38)"/>
<path d="M0 0 C3.63 0.33 7.26 0.66 11 1 C8.84381543 8.48990429 6.93806557 13.62075205 0 17.8125 C-3 19 -3 19 -8 20 C-8.33 16.37 -8.66 12.74 -9 9 C-7.35 9 -5.7 9 -4 9 C-1.58333333 6.83333333 -1.58333333 6.83333333 0 4 C0 2.68 0 1.36 0 0 Z " fill="#FE6E75" transform="translate(74,65)"/>
<path d="M0 0 C0.66 0.33 1.32 0.66 2 1 C4.44350894 1.13218708 6.86338219 1.20973992 9.30859375 1.24609375 C10.7923237 1.27902784 12.27604752 1.31223956 13.75976562 1.34570312 C16.10127599 1.3931479 18.44276066 1.43758811 20.78442383 1.47680664 C23.04274285 1.51650969 25.30055417 1.56805271 27.55859375 1.62109375 C28.2586705 1.6295079 28.95874725 1.63792206 29.68003845 1.64659119 C33.32144887 1.73925186 34.88591647 1.92394431 38 4 C38 4.66 38 5.32 38 6 C25.79 6 13.58 6 1 6 C0.34 4.68 -0.32 3.36 -1 2 C-0.67 1.34 -0.34 0.68 0 0 Z " fill="#FCB0A0" transform="translate(37,89)"/>
<path d="M0 0 C12.21 0 24.42 0 37 0 C37.66 1.32 38.32 2.64 39 4 C38.34 4.66 37.68 5.32 37 6 C36.505 5.505 36.505 5.505 36 5 C33.58885341 4.86477952 31.20223617 4.78952194 28.7890625 4.75390625 C27.30207752 4.72096442 25.8150985 4.68775283 24.328125 4.65429688 C21.97562823 4.60688335 19.62315505 4.5624692 17.27050781 4.52319336 C15.00559835 4.48347897 12.741194 4.43192832 10.4765625 4.37890625 C9.77334869 4.3704921 9.07013489 4.36207794 8.34561157 4.35340881 C4.6966793 4.26101273 3.1196838 4.0797892 0 2 C0 1.34 0 0.68 0 0 Z " fill="#FCB0A0" transform="translate(53,33)"/>
<path d="M0 0 C1.2375 0.1546875 1.2375 0.1546875 2.5 0.3125 C3.16 1.3025 3.82 2.2925 4.5 3.3125 C2.85 3.6425 1.2 3.9725 -0.5 4.3125 C-0.59796875 4.89257812 -0.6959375 5.47265625 -0.796875 6.0703125 C-1.79332834 11.27592217 -2.8501153 15.28826815 -6.5 19.3125 C-11.32648618 22.26355155 -15.77366684 23.89981622 -21.5 23.3125 C-21.5 21.9925 -21.5 20.6725 -21.5 19.3125 C-20.48679687 19.16554688 -20.48679687 19.16554688 -19.453125 19.015625 C-18.56109375 18.86609375 -17.6690625 18.7165625 -16.75 18.5625 C-15.86828125 18.42328125 -14.9865625 18.2840625 -14.078125 18.140625 C-10.87873643 17.11294261 -9.56137902 15.95506077 -7.5 13.3125 C-6.46190671 10.59096422 -6.46190671 10.59096422 -5.875 7.6875 C-4.24404967 0.53050621 -4.24404967 0.53050621 0 0 Z " fill="#FDB2A2" transform="translate(34.5,71.6875)"/>
<path d="M0 0 C0 0.99 0 1.98 0 3 C-0.67546875 3.09796875 -1.3509375 3.1959375 -2.046875 3.296875 C-2.93890625 3.44640625 -3.8309375 3.5959375 -4.75 3.75 C-6.07257813 3.95882812 -6.07257813 3.95882812 -7.421875 4.171875 C-10.62126357 5.19955739 -11.93862098 6.35743923 -14 9 C-15.03809329 11.72153578 -15.03809329 11.72153578 -15.625 14.625 C-16.80555556 19.80555556 -16.80555556 19.80555556 -19 22 C-21.5 22.3125 -21.5 22.3125 -24 22 C-24.66 21.01 -25.32 20.02 -26 19 C-24.35 18.67 -22.7 18.34 -21 18 C-20.90203125 17.41992188 -20.8040625 16.83984375 -20.703125 16.2421875 C-19.5047919 9.9819301 -17.79276209 5.46420184 -12.875 1.125 C-8.61408397 -0.54231497 -4.52032035 -0.23698767 0 0 Z " fill="#FDB1A1" transform="translate(115,34)"/>
<path d="M0 0 C1.37478516 0.01740234 1.37478516 0.01740234 2.77734375 0.03515625 C3.69644531 0.04417969 4.61554687 0.05320312 5.5625 0.0625 C6.27277344 0.07410156 6.98304687 0.08570312 7.71484375 0.09765625 C7.38484375 1.74765625 7.05484375 3.39765625 6.71484375 5.09765625 C4.07484375 5.42765625 1.43484375 5.75765625 -1.28515625 6.09765625 C-1.61515625 15.33765625 -1.94515625 24.57765625 -2.28515625 34.09765625 C-2.61515625 34.09765625 -2.94515625 34.09765625 -3.28515625 34.09765625 C-3.30980913 29.41626371 -3.32799364 24.73490866 -3.34008789 20.0534668 C-3.34512782 18.45971011 -3.35195975 16.86595806 -3.3605957 15.2722168 C-3.37267624 12.98615372 -3.3783878 10.70015158 -3.3828125 8.4140625 C-3.38797379 7.69738907 -3.39313507 6.98071564 -3.39845276 6.24232483 C-3.39864888 4.52701953 -3.34707632 2.81184359 -3.28515625 1.09765625 C-2.28515625 0.09765625 -2.28515625 0.09765625 0 0 Z " fill="#3097F9" transform="translate(5.28515625,89.90234375)"/>
<path d="M0 0 C0.66 0 1.32 0 2 0 C3.44207941 2.88415883 3.09394887 5.41721528 3.0625 8.625 C3.05347656 9.81351563 3.04445313 11.00203125 3.03515625 12.2265625 C3.02355469 13.14179687 3.01195313 14.05703125 3 15 C1.68 15 0.36 15 -1 15 C-1.02693575 12.87506859 -1.04636628 10.75004088 -1.0625 8.625 C-1.07410156 7.44164063 -1.08570313 6.25828125 -1.09765625 5.0390625 C-1 2 -1 2 0 0 Z " fill="#EB3B43" transform="translate(63,74)"/>
<path d="M0 0 C0.99 0.33 1.98 0.66 3 1 C3.02693575 3.12493141 3.04636628 5.24995912 3.0625 7.375 C3.07410156 8.55835938 3.08570312 9.74171875 3.09765625 10.9609375 C3 14 3 14 2 16 C1.34 16 0.68 16 0 16 C-1.43316898 13.13366205 -1.13200361 10.62764499 -1.125 7.4375 C-1.12757812 6.26058594 -1.13015625 5.08367188 -1.1328125 3.87109375 C-1 1 -1 1 0 0 Z " fill="#EB3B43" transform="translate(63,38)"/>
<path d="M0 0 C0.042721 1.66611905 0.04063832 3.33382885 0 5 C-1 6 -1 6 -3.28515625 6.09765625 C-4.65994141 6.08025391 -4.65994141 6.08025391 -6.0625 6.0625 C-6.98160156 6.05347656 -7.90070313 6.04445313 -8.84765625 6.03515625 C-9.55792969 6.02355469 -10.26820312 6.01195312 -11 6 C-10.67 4.35 -10.34 2.7 -10 1 C-2.25 0 -2.25 0 0 0 Z " fill="#2A92FA" transform="translate(126,32)"/>
<path d="M0 0 C0 1.32 0 2.64 0 4 C-2.12493141 4.02693575 -4.24995912 4.04636628 -6.375 4.0625 C-7.55835937 4.07410156 -8.74171875 4.08570312 -9.9609375 4.09765625 C-13 4 -13 4 -15 3 C-15 2.34 -15 1.68 -15 1 C-13.43784452 0.83013455 -11.8752548 0.66426036 -10.3125 0.5 C-9.44238281 0.4071875 -8.57226562 0.314375 -7.67578125 0.21875 C-5.10276661 0.00840136 -2.58015636 -0.03719144 0 0 Z " fill="#EA3740" transform="translate(89,62)"/>
<path d="M0 0 C4.95 0.33 9.9 0.66 15 1 C15 1.66 15 2.32 15 3 C12.11584117 4.44207941 9.58278472 4.09394887 6.375 4.0625 C5.18648437 4.05347656 3.99796875 4.04445313 2.7734375 4.03515625 C1.85820313 4.02355469 0.94296875 4.01195313 0 4 C0 2.68 0 1.36 0 0 Z " fill="#EA3740" transform="translate(39,62)"/>
<path d="M0 0 C1.65 0.33 3.3 0.66 5 1 C4.67 2.65 4.34 4.3 4 6 C2.35 5.67 0.7 5.34 -1 5 C-0.67 3.35 -0.34 1.7 0 0 Z " fill="#FE5051" transform="translate(62,61)"/>
<path d="M0 0 C0.33 0.66 0.66 1.32 1 2 C3.31 2 5.62 2 8 2 C8 3.32 8 4.64 8 6 C5.69 6.33 3.38 6.66 1 7 C0.67 4.69 0.34 2.38 0 0 Z " fill="#FDB7A8" transform="translate(77,13)"/>
<path d="M0 0 C2.875 -0.1875 2.875 -0.1875 6 0 C6.66 0.99 7.32 1.98 8 3 C7.67 3.99 7.34 4.98 7 6 C7 5.34 7 4.68 7 4 C4.69 4 2.38 4 0 4 C0 2.68 0 1.36 0 0 Z " fill="#FDB6A7" transform="translate(43,109)"/>
<path d="M0 0 C1.65 0 3.3 0 5 0 C5.66 1.65 6.32 3.3 7 5 C4.36 4.67 1.72 4.34 -1 4 C-0.67 2.68 -0.34 1.36 0 0 Z " fill="#FDB6A6" transform="translate(43,117)"/>
<path d="M0 0 C2.64 0.33 5.28 0.66 8 1 C7.67 2.32 7.34 3.64 7 5 C5.35 5 3.7 5 2 5 C1.34 3.35 0.68 1.7 0 0 Z " fill="#FDB6A6" transform="translate(78,6)"/>
<path d="M0 0 C1.32 0 2.64 0 4 0 C3.67 1.98 3.34 3.96 3 6 C1.68 6 0.36 6 -1 6 C-0.67 4.02 -0.34 2.04 0 0 Z " fill="#FF676D" transform="translate(108,79)"/>
<path d="M0 0 C1.32 0 2.64 0 4 0 C3.67 1.98 3.34 3.96 3 6 C1.68 6 0.36 6 -1 6 C-0.67 4.02 -0.34 2.04 0 0 Z " fill="#FF6268" transform="translate(17,43)"/>
<path d="M0 0 C1.32 0 2.64 0 4 0 C4 1.32 4 2.64 4 4 C2.35 4.33 0.7 4.66 -1 5 C-1 1 -1 1 0 0 Z " fill="#FF676D" transform="translate(93,100)"/>
<path d="M0 0 C-0.66 1.32 -1.32 2.64 -2 4 C-3.32 4 -4.64 4 -6 4 C-6 2.68 -6 1.36 -6 0 C-3.50907189 -1.24546405 -2.58919267 -0.7767578 0 0 Z " fill="#FF686E" transform="translate(37,24)"/>
<path d="M0 0 C0.99 0.33 1.98 0.66 3 1 C2.67 2.32 2.34 3.64 2 5 C0.68 5.33 -0.64 5.66 -2 6 C-1.125 1.125 -1.125 1.125 0 0 Z " fill="#FF6B72" transform="translate(103,90)"/>
<path d="M0 0 C1.32 0 2.64 0 4 0 C4 1.65 4 3.3 4 5 C2.68 5.33 1.36 5.66 0 6 C0 4.02 0 2.04 0 0 Z " fill="#FF666C" transform="translate(111,67)"/>
<path d="M0 0 C0.99 0 1.98 0 3 0 C3 1.98 3 3.96 3 6 C1.68 6 0.36 6 -1 6 C-1.042721 4.33388095 -1.04063832 2.66617115 -1 1 C-0.67 0.67 -0.34 0.34 0 0 Z " fill="#FF666C" transform="translate(14,55)"/>
<path d="M0 0 C0.99 0 1.98 0 3 0 C2.67 1.65 2.34 3.3 2 5 C0.68 5 -0.64 5 -2 5 C-1.125 1.125 -1.125 1.125 0 0 Z " fill="#FF6A72" transform="translate(24,32)"/>
<path d="M0 0 C0 0.99 0 1.98 0 3 C-1.65 3.33 -3.3 3.66 -5 4 C-5.33 2.68 -5.66 1.36 -6 0 C-3 -1 -3 -1 0 0 Z " fill="#FF6B71" transform="translate(74,111)"/>
<path d="M0 0 C1.98 0 3.96 0 6 0 C6 1.32 6 2.64 6 4 C3.03 3.505 3.03 3.505 0 3 C0 2.01 0 1.02 0 0 Z " fill="#FF6B72" transform="translate(55,111)"/>
<path d="M0 0 C0.99 0 1.98 0 3 0 C3.33 1.98 3.66 3.96 4 6 C2.0625 5.6875 2.0625 5.6875 0 5 C-0.33 4.01 -0.66 3.02 -1 2 C-0.67 1.34 -0.34 0.68 0 0 Z " fill="#FF6C72" transform="translate(17,80)"/>
<path d="M0 0 C0.99 0 1.98 0 3 0 C3.33 1.65 3.66 3.3 4 5 C2.68 5.33 1.36 5.66 0 6 C-0.38218767 4.34385343 -0.71395102 2.67542976 -1 1 C-0.67 0.67 -0.34 0.34 0 0 Z " fill="#FF6B72" transform="translate(14,68)"/>
<path d="M0 0 C0.99 0 1.98 0 3 0 C3.33 1.65 3.66 3.3 4 5 C2.68 5.33 1.36 5.66 0 6 C-0.38218767 4.34385343 -0.71395102 2.67542976 -1 1 C-0.67 0.67 -0.34 0.34 0 0 Z " fill="#FF6A72" transform="translate(111,54)"/>
<path d="M0 0 C1.9375 0.3125 1.9375 0.3125 4 1 C4.33 1.99 4.66 2.98 5 4 C4.67 4.66 4.34 5.32 4 6 C3.01 6 2.02 6 1 6 C0.67 4.02 0.34 2.04 0 0 Z " fill="#FF6C72" transform="translate(107,42)"/>
<path d="M0 0 C0.99 0.33 1.98 0.66 3 1 C3 1.99 3 2.98 3 4 C1.02 4.33 -0.96 4.66 -3 5 C-2.625 3.0625 -2.625 3.0625 -2 1 C-1.34 0.67 -0.68 0.34 0 0 Z " fill="#FF666D" transform="translate(45,16)"/>
<path d="M0 0 C0 0.99 0 1.98 0 3 C-1.65 3.33 -3.3 3.66 -5 4 C-5.33 2.68 -5.66 1.36 -6 0 C-3 -1 -3 -1 0 0 Z " fill="#FF6B71" transform="translate(60,14)"/>
<path d="M0 0 C2.97 0.495 2.97 0.495 6 1 C6 1.99 6 2.98 6 4 C4.02 4 2.04 4 0 4 C0 2.68 0 1.36 0 0 Z " fill="#FF6A71" transform="translate(67,13)"/>
<path d="M0 0 C-0.33 1.32 -0.66 2.64 -1 4 C-2.65 4 -4.3 4 -6 4 C-6 3.01 -6 2.02 -6 1 C-4 0 -4 0 0 0 Z " fill="#FF6B71" transform="translate(86,107)"/>
<path d="M0 0 C1.65 0 3.3 0 5 0 C5.33 0.99 5.66 1.98 6 3 C3.69 3 1.38 3 -1 3 C-0.67 2.01 -0.34 1.02 0 0 Z " fill="#FDB1A1" transform="translate(44,101)"/>
<path d="M0 0 C2.31 0 4.62 0 7 0 C6.67 0.99 6.34 1.98 6 3 C4.35 3 2.7 3 1 3 C0.67 2.01 0.34 1.02 0 0 Z " fill="#FDB1A2" transform="translate(78,24)"/>
</svg>
