<?xml version="1.0" encoding="UTF-8"?>
<svg version="1.1" xmlns="http://www.w3.org/2000/svg" width="64" height="64">
<path d="M0 0 C4.66235623 11.554535 5.6452172 24.25792319 1 36 C0.02320191 37.35042336 -0.97387249 38.68666832 -2 40 C-2.2475 40.9075 -2.495 41.815 -2.75 42.75 C-5.54854164 50.02620826 -12.22215302 56.26928764 -19 60 C-26.29740791 62.8361557 -32.70071259 63.27852272 -40.40625 62.12890625 C-43.31386302 61.98440139 -44.51777176 62.58385696 -47 64 C-49.75 64.125 -49.75 64.125 -52 64 C-51.67 63.01 -51.34 62.02 -51 61 C-50.030625 60.690625 -49.06125 60.38125 -48.0625 60.0625 C-44.7652079 58.33462991 -44.7652079 58.33462991 -44.30078125 55.28125 C-44.02068275 53.16380816 -43.79128846 51.03893617 -43.6171875 48.91015625 C-42.87601387 45.41538185 -41.60569086 44.34714955 -39 42 C-38.67 41.01 -38.34 40.02 -38 39 C-36.515 38.505 -36.515 38.505 -35 38 C-33.99260254 36.33779419 -32.99477045 34.66979326 -32 33 C-30.90883035 31.80054634 -29.80303447 30.61432757 -28.6875 29.4375 C-24.92752141 25.27381844 -22.78875872 20.74181549 -20.40234375 15.703125 C-18.72534731 12.47058591 -16.77222317 10.3457273 -14 8 C-13.175 7.13375 -12.35 6.2675 -11.5 5.375 C-7.65081128 1.71827072 -5.38467012 0 0 0 Z " fill="#46AFF4" transform="translate(56,0)"/>
<path d="M0 0 C4.66235623 11.554535 5.6452172 24.25792319 1 36 C0.02320191 37.35042336 -0.97387249 38.68666832 -2 40 C-2.2475 40.9075 -2.495 41.815 -2.75 42.75 C-5.54854164 50.02620826 -12.22215302 56.26928764 -19 60 C-26.29740791 62.8361557 -32.70071259 63.27852272 -40.40625 62.12890625 C-43.31386302 61.98440139 -44.51777176 62.58385696 -47 64 C-49.75 64.125 -49.75 64.125 -52 64 C-51.67 63.01 -51.34 62.02 -51 61 C-50.030625 60.690625 -49.06125 60.38125 -48.0625 60.0625 C-44.77033007 58.32646296 -44.77033007 58.32646296 -44.23046875 55.24609375 C-43.91399783 53.10798535 -43.64320273 50.96254079 -43.421875 48.8125 C-43 46 -43 46 -41 43 C-40.34 43 -39.68 43 -39 43 C-39.2165625 44.2684375 -39.2165625 44.2684375 -39.4375 45.5625 C-40.0058797 49.03593149 -40.51202393 52.51445662 -41 56 C-38.04543193 54.62823625 -35.40847318 53.21218792 -33 51 C-32.33740346 48.16431142 -32.71832307 45.95760774 -33 43 C-32 40.5 -32 40.5 -31 39 C-30.34 39 -29.68 39 -29 39 C-29 41.97 -29 44.94 -29 48 C-27.51814875 46.37744772 -26.03959744 44.75188112 -24.5625 43.125 C-23.73878906 42.22007813 -22.91507813 41.31515625 -22.06640625 40.3828125 C-18.96011199 36.80088528 -18.78573608 34.55131312 -18.4375 29.875 C-18.35371094 28.77929688 -18.26992188 27.68359375 -18.18359375 26.5546875 C-18.09271484 25.29011719 -18.09271484 25.29011719 -18 24 C-17.34 24 -16.68 24 -16 24 C-15.505 26.97 -15.505 26.97 -15 30 C-13.02 25.71 -11.04 21.42 -9 17 C-8.34 17 -7.68 17 -7 17 C-7.47258445 22.44167096 -8.91924164 26.36364927 -11.75 31.0625 C-12.08515625 31.64837891 -12.4203125 32.23425781 -12.765625 32.83789062 C-15.15520802 36.91556923 -17.89755666 40.43652924 -21 44 C-19.02 44 -17.04 44 -15 44 C-15 44.99 -15 45.98 -15 47 C-17.27924142 48.13962071 -18.5391049 48.03134697 -21.0625 48.0625 C-26.54652815 48.56830842 -29.3462845 51.42842913 -33.15234375 55.1875 C-35 57 -35 57 -37 58 C-27.75860429 58.62185093 -20.96502845 57.32513314 -13.625 51.5 C-11.44896611 49.42758677 -9.66114797 47.49172196 -8 45 C-9.32 44.67 -10.64 44.34 -12 44 C-12 43.01 -12 42.02 -12 41 C-11.45730469 40.79246094 -10.91460937 40.58492187 -10.35546875 40.37109375 C-6.24124248 38.59938189 -4.35723297 37.62227678 -2.0625 33.625 C-1.11784732 30.40206733 -0.40624734 27.33122822 0 24 C-1.32 24 -2.64 24 -4 24 C-2.125 20.125 -2.125 20.125 -1 19 C-0.60553227 13.59347171 -1.09345323 8.32596226 -2 3 C-3.29608947 3.93137592 -4.58671632 4.8703566 -5.875 5.8125 C-6.59429687 6.33457031 -7.31359375 6.85664062 -8.0546875 7.39453125 C-11.20575149 9.99510816 -12.237179 12.2446532 -12.625 16.1875 C-12.810625 18.0746875 -12.810625 18.0746875 -13 20 C-13.99 20 -14.98 20 -16 20 C-16 19.34 -16 18.68 -16 18 C-20.84840403 21.9248985 -22.27500854 28.05507004 -23 34 C-24.32 34 -25.64 34 -27 34 C-29.25065102 35.91666921 -29.25065102 35.91666921 -31 38 C-32.485 37.505 -32.485 37.505 -34 37 C-32.63710651 33.95353221 -31.06976355 31.88245987 -28.75 29.5 C-24.96129994 25.31042089 -22.80506413 20.77624284 -20.40234375 15.703125 C-18.72534731 12.47058591 -16.77222317 10.3457273 -14 8 C-13.175 7.13375 -12.35 6.2675 -11.5 5.375 C-7.65081128 1.71827072 -5.38467012 0 0 0 Z " fill="#03080B" transform="translate(56,0)"/>
<path d="M0 0 C0.66 0 1.32 0 2 0 C1.52741555 5.44167096 0.08075836 9.36364927 -2.75 14.0625 C-3.25273438 14.94131836 -3.25273438 14.94131836 -3.765625 15.83789062 C-6.15520802 19.91556923 -8.89755666 23.43652924 -12 27 C-10.02 27 -8.04 27 -6 27 C-6 27.99 -6 28.98 -6 30 C-8.27924142 31.13962071 -9.5391049 31.03134697 -12.0625 31.0625 C-17.51016575 31.56252729 -20.17105417 34.36257469 -23.859375 38.1875 C-26.30111791 40.25496115 -27.83682103 40.74862154 -31 41 C-31.66 40.67 -32.32 40.34 -33 40 C-32.67 38.68 -32.34 37.36 -32 36 C-32 36.99 -32 37.98 -32 39 C-29.04543193 37.62823625 -26.40847318 36.21218792 -24 34 C-23.33740346 31.16431142 -23.71832307 28.95760774 -24 26 C-23 23.5 -23 23.5 -22 22 C-21.34 22 -20.68 22 -20 22 C-20 24.97 -20 27.94 -20 31 C-18.51814875 29.37744772 -17.03959744 27.75188112 -15.5625 26.125 C-14.73878906 25.22007813 -13.91507813 24.31515625 -13.06640625 23.3828125 C-9.96011199 19.80088528 -9.78573608 17.55131312 -9.4375 12.875 C-9.35371094 11.77929688 -9.26992188 10.68359375 -9.18359375 9.5546875 C-9.09271484 8.29011719 -9.09271484 8.29011719 -9 7 C-8.34 7 -7.68 7 -7 7 C-6.67 8.98 -6.34 10.96 -6 13 C-4.02 8.71 -2.04 4.42 0 0 Z " fill="#060F14" transform="translate(47,17)"/>
<path d="M0 0 C-0.165 0.66 -0.33 1.32 -0.5 2 C-0.94156062 4.64936374 -0.8726801 6.38449817 -0.625 9 C-0.56416494 11.67674259 -0.65428023 12.62152784 -2.484375 14.625 C-7.125 18 -7.125 18 -10 18 C-10.38530424 12.0920016 -9.63216966 6.37237613 -7 1 C-4.07988082 -1.05951495 -3.49295762 -1.16431921 0 0 Z " fill="#43A7E9" transform="translate(25,38)"/>
<path d="M0 0 C0.66 0 1.32 0 2 0 C1.98839844 0.61488281 1.97679687 1.22976562 1.96484375 1.86328125 C1.95582031 2.67152344 1.94679688 3.47976562 1.9375 4.3125 C1.92589844 5.11300781 1.91429687 5.91351563 1.90234375 6.73828125 C1.90342145 9.16861334 1.90342145 9.16861334 3 12 C1.61987977 13.20572596 0.22017172 14.38905751 -1.1875 15.5625 C-1.96480469 16.22378906 -2.74210937 16.88507812 -3.54296875 17.56640625 C-6 19 -6 19 -8.80078125 18.71484375 C-9.52652344 18.47894531 -10.25226562 18.24304688 -11 18 C-10.67 16.68 -10.34 15.36 -10 14 C-10 14.99 -10 15.98 -10 17 C-7.04543193 15.62823625 -4.40847318 14.21218792 -2 12 C-1.33740346 9.16431142 -1.71832307 6.95760774 -2 4 C-1 1.5 -1 1.5 0 0 Z " fill="#0D202D" transform="translate(25,39)"/>
<path d="M0 0 C0.66 0 1.32 0 2 0 C1.67 3.3 1.34 6.6 1 10 C0.34 10 -0.32 10 -1 10 C-1.125 2.25 -1.125 2.25 0 0 Z " fill="#07121A" transform="translate(25,39)"/>
<path d="M0 0 C0.99 0.33 1.98 0.66 3 1 C2 2.5 2 2.5 0 4 C-2.71846235 4.27345479 -5.25677199 4.13491285 -8 4 C-8 3.67 -8 3.34 -8 3 C-7.05125 2.690625 -6.1025 2.38125 -5.125 2.0625 C-2.13919592 1.12605258 -2.13919592 1.12605258 0 0 Z " fill="#133043" transform="translate(39,44)"/>
</svg>
