<?xml version="1.0" encoding="UTF-8"?>
<svg version="1.1" xmlns="http://www.w3.org/2000/svg" width="128" height="128">
<path d="M0 0 C4.88010025 11.88360291 7.27790006 21.59516173 7.01489258 34.37597656 C6.97822842 36.25029905 6.98520591 38.12537732 7 40 C7.33 40.33 7.66 40.66 8 41 C8.10104502 54.62086837 5.56470732 68.135057 -3 79 C-5.24125918 81.866912 -5.24125918 81.866912 -5.37890625 85.32421875 C-7.16505195 95.89505589 -19.40576204 106.78786789 -27.65625 113 C-43.23376302 123.38500868 -58.52045322 126.09896492 -77 124 C-78.41765002 123.71315108 -79.83455369 123.42253259 -81.25 123.125 C-86.11296693 122.9629011 -89.14553459 124.61854008 -93.38671875 126.87109375 C-96.16059951 128.06937707 -98.01439603 128.22055813 -101 128 C-101.33 126.68 -101.66 125.36 -102 124 C-90.8 117 -90.8 117 -87 117 C-87.17789063 116.31164062 -87.35578125 115.62328125 -87.5390625 114.9140625 C-89.08568301 105.13627518 -85.54347453 95.49733786 -81 87 C-79.68 87 -78.36 87 -77 87 C-75.51827127 83.54056772 -75.51827127 83.54056772 -74.8125 79.875 C-74 78 -74 78 -70.5625 76.5625 C-66.24048784 74.66688063 -66.64021694 74.11534574 -65 70 C-62.7578125 67.5 -62.7578125 67.5 -60.125 65 C-57.484062 62.47731296 -55.05383871 60.06897485 -52.8046875 57.1875 C-52.20914063 56.465625 -51.61359375 55.74375 -51 55 C-50.34 55 -49.68 55 -49 55 C-48.88785156 54.47535156 -48.77570312 53.95070312 -48.66015625 53.41015625 C-47.08247696 47.21286701 -44.52475868 41.7567185 -41.5625 36.125 C-41.17908447 35.38773682 -40.79566895 34.65047363 -40.40063477 33.89086914 C-38.34721712 30.07125875 -36.42390652 26.77692631 -33 24 C-32.34 24 -31.68 24 -31 24 C-30.06284078 22.516662 -29.20092526 20.9855331 -28.375 19.4375 C-22.90889842 10.08585634 -11.41106097 -0.81985629 0 0 Z " fill="#48B2F8" transform="translate(111,0)"/>
<path d="M0 0 C4.88010025 11.88360291 7.27790006 21.59516173 7.01489258 34.37597656 C6.97822842 36.25029905 6.98520591 38.12537732 7 40 C7.33 40.33 7.66 40.66 8 41 C8.10104502 54.62086837 5.56470732 68.135057 -3 79 C-5.24125918 81.866912 -5.24125918 81.866912 -5.37890625 85.32421875 C-7.16505195 95.89505589 -19.40576204 106.78786789 -27.65625 113 C-43.23376302 123.38500868 -58.52045322 126.09896492 -77 124 C-78.41765002 123.71315108 -79.83455369 123.42253259 -81.25 123.125 C-86.11296693 122.9629011 -89.14553459 124.61854008 -93.38671875 126.87109375 C-96.16059951 128.06937707 -98.01439603 128.22055813 -101 128 C-101.33 126.68 -101.66 125.36 -102 124 C-90.8 117 -90.8 117 -87 117 C-87.17789063 116.31164062 -87.35578125 115.62328125 -87.5390625 114.9140625 C-89.08568301 105.13627518 -85.54347453 95.49733786 -81 87 C-79.35 87.33 -77.7 87.66 -76 88 C-76.62304398 91.61495307 -77.63430705 94.78833042 -79 98.1875 C-80.97886727 103.46447939 -81.75659438 108.38950038 -82 114 C-79.28857873 112.29861992 -76.59029959 110.5846217 -73.9140625 108.828125 C-71 107 -71 107 -68.7109375 105.984375 C-66.39083679 104.85774173 -65.35391642 104.22461688 -64 102 C-63.70415889 98.5813916 -63.65256555 95.37778859 -63.90551758 91.96313477 C-64.24039001 87.09967655 -63.66039042 84.10693841 -61 80 C-58.8125 79.125 -58.8125 79.125 -57 79 C-56.375 80.75 -56.375 80.75 -56 83 C-56.3196875 83.598125 -56.639375 84.19625 -56.96875 84.8125 C-58.21759237 87.46155957 -58.20163314 89.3379406 -58.125 92.25 C-58.10695312 93.14203125 -58.08890625 94.0340625 -58.0703125 94.953125 C-58.04710937 95.62859375 -58.02390625 96.3040625 -58 97 C-53.85933692 93.01836665 -49.79147263 88.9817473 -45.80029297 84.85009766 C-44.69909222 83.71843245 -43.58612611 82.5978876 -42.45361328 81.49755859 C-36.5419734 75.69828357 -34.57514117 70.91098235 -34.44677734 62.77368164 C-34.51311179 59.16088881 -34.68668832 55.5665123 -34.97070312 51.96435547 C-35 50 -35 50 -34 48 C-32.02 48.495 -32.02 48.495 -30 49 C-29.505 54.94 -29.505 54.94 -29 61 C-24.29303749 51.79631152 -19.79197069 42.62577176 -16 33 C-14.68 33 -13.36 33 -12 33 C-12.49970853 39.15613146 -13.9183139 43.9728394 -16.5 49.5625 C-16.85602295 50.34334961 -17.2120459 51.12419922 -17.57885742 51.92871094 C-23.75208122 65.17107638 -31.59093805 78.59093805 -42 89 C-37.38 89 -32.76 89 -28 89 C-28 90.32 -28 91.64 -28 93 C-31.66568454 94.80431554 -34.70738021 95.1623403 -38.7722168 95.17358398 C-45.21401103 95.12360547 -45.21401103 95.12360547 -51.14453125 97.265625 C-52.72515734 98.93306813 -52.72515734 98.93306813 -54.16796875 100.828125 C-56.60901508 103.72198803 -59.50002052 105.91187184 -62.5 108.1875 C-63.03455811 108.60314209 -63.56911621 109.01878418 -64.11987305 109.44702148 C-67.90488628 112.3373637 -71.82598158 114.707452 -76 117 C-73.9122106 119.0877894 -69.55610315 118.2402174 -66.6875 118.25 C-49.66701119 118.22655119 -35.95866218 112.81776691 -23.78125 100.90234375 C-19.83936023 96.88308218 -16.33932551 92.52773253 -13 88 C-15.97 87.67 -18.94 87.34 -22 87 C-22.33 85.68 -22.66 84.36 -23 83 C-22.03578125 82.55269531 -21.0715625 82.10539062 -20.078125 81.64453125 C-18.80177027 81.03450877 -17.52574583 80.42379487 -16.25 79.8125 C-15.61578125 79.52052734 -14.9815625 79.22855469 -14.328125 78.92773438 C-7.88945535 75.80900376 -4.7341061 71.30761263 -1.94921875 64.82421875 C-0.00504553 59.03970338 0.95631309 53.00119975 2 47 C1.22269531 47.33773437 0.44539063 47.67546875 -0.35546875 48.0234375 C-3.18824089 49.06951288 -4.23309576 49.02477935 -7 48 C-6.6875 46.0625 -6.6875 46.0625 -6 44 C-5.01 43.67 -4.02 43.34 -3 43 C1.64738667 35.61885647 1.30836249 28.30764431 0 20 C-1.13871349 15.59267169 -2.48932843 11.29311781 -4 7 C-12.19539497 11.11666831 -20.4261096 15.91238527 -24.32421875 24.6015625 C-25.73610727 29.61254257 -25.84210129 34.82092244 -26 40 C-27.32 40 -28.64 40 -30 40 C-32 37 -32 37 -32 34 C-40.33238336 41.03283733 -42.80946809 53.99190936 -43.80859375 64.24609375 C-43.87175781 65.15488281 -43.93492188 66.06367187 -44 67 C-45.8125 67.6875 -45.8125 67.6875 -48 68 C-49.75 66.5625 -49.75 66.5625 -51 65 C-51.74765625 65.80566406 -52.4953125 66.61132812 -53.265625 67.44140625 C-54.25974198 68.48241554 -55.25457096 69.52274524 -56.25 70.5625 C-56.74113281 71.09552734 -57.23226562 71.62855469 -57.73828125 72.17773438 C-59.203125 73.69140625 -59.203125 73.69140625 -62 76 C-64.359375 75.83984375 -64.359375 75.83984375 -66 75 C-65.56179027 70.18828535 -63.65098203 68.24542972 -60.1875 65 C-57.51895192 62.47729576 -55.06492979 60.08303632 -52.80078125 57.1875 C-52.20652344 56.465625 -51.61226562 55.74375 -51 55 C-50.34 55 -49.68 55 -49 55 C-48.88785156 54.47535156 -48.77570312 53.95070312 -48.66015625 53.41015625 C-47.08247696 47.21286701 -44.52475868 41.7567185 -41.5625 36.125 C-41.17908447 35.38773682 -40.79566895 34.65047363 -40.40063477 33.89086914 C-38.34721712 30.07125875 -36.42390652 26.77692631 -33 24 C-32.34 24 -31.68 24 -31 24 C-30.06284078 22.516662 -29.20092526 20.9855331 -28.375 19.4375 C-22.90889842 10.08585634 -11.41106097 -0.81985629 0 0 Z " fill="#010406" transform="translate(111,0)"/>
<path d="M0 0 C1.32 0 2.64 0 4 0 C4 1.65 4 3.3 4 5 C2.35 4.67 0.7 4.34 -1 4 C-0.67 2.68 -0.34 1.36 0 0 Z " fill="#020608" transform="translate(37,78)"/>
</svg>
